# xmcd
#
# Track frame offsets:
#  150
#  15655
#  32755
#  47101
#  66353
#  80395
#  107534
#  122065
#  138353
#  156948
#  171357
#
# Disc length: 2386 seconds
#
# Revision: 0
# Processed by: cddbd v1.5.2PL0 Copyright (c) Steve Scherf et al.
# Submitted via: Collectorz.com_Music_Collector 6.9
#
DISCID=8f09500b
DTITLE=Ross Ward - Transit Lounge
DYEAR=2003
DGENRE=Blues -  Blues Acoustic -  Blues Electric
TTITLE0=Sold My Redemption
TTITLE1=Trouble Again
TTITLE2=Smile
TTITLE3=South Of The Border
TTITLE4=A Place Like Me
TTITLE5=Crime Scene
TTITLE6=Amber Rose
TTITLE7=Eyes On You
TTITLE8=See The Light
TTITLE9=Live It Up
TTITLE10=Waltzing Matilda (Bangalow Refrain)
EXTD=
EXTT0=
EXTT1=
EXTT2=
EXTT3=
EXTT4=
EXTT5=
EXTT6=
EXTT7=
EXTT8=
EXTT9=
EXTT10=
PLAYORDER=
